#!OML:ASF H:\GeneralSubjects\Female5\Project 1\Capture day 1\Session 1\Female5.ASF
:FULLY-SPECIFIED
:DEGREES
65
root -22.5549 15.7936 6.52628 -171.08 -18.1128 -173.883
lowerback 6.60082 1.59094 3.1165
upperback -9.92022 2.20962 2.61397
thorax -14.6371 0.592826 0.820129
lowerneck -19.1093 -3.29126 -6.46343
upperneck 31.0342 -6.95039 7.74854
head 14.3669 -3.3053 2.86392
rclavicle -1.30204e-014 -5.84427e-014
rhumerus -53.6134 29.6234 -93.7063
rradius 31.0717
rwrist -15.932
rhand -21.007 -18.8354
rfingers 7.12502
rthumb 5.3676 -48.7475
lclavicle -1.30204e-014 -5.84427e-014
lhumerus -40.0497 5.56442 81.3358
lradius 25.9563
lwrist -10.1938
lhand -21.4725 32.234
lfingers 7.12502
lthumb 4.91808 62.157
rfemur 9.46817 49.8751 42.7132
rtibia -10.9556
rfoot -62.641 -41.6275
rtoes 32.1289
lfemur -11.5645 -17.1082 -3.06245
ltibia 11.9654
lfoot -34.147 24.5385
ltoes -63.0763
66
root -22.5048 15.7947 6.52741 -171.056 -18.0546 -174.047
lowerback 6.54692 1.58793 3.01411
upperback -9.91113 2.18668 2.58176
thorax -14.5935 0.592508 0.845844
lowerneck -19.0989 -3.22427 -6.49773
upperneck 31.2532 -6.82744 7.59133
head 14.4434 -3.28615 2.83117
rclavicle -1.06598e-014 1.31198e-014
rhumerus -53.3999 31.4211 -94.7095
rradius 31.6947
rwrist -17.2449
rhand -19.8276 -19.2529
rfingers 7.12502
rthumb 6.50624 -49.133
lclavicle -1.06598e-014 1.31198e-014
lhumerus -38.3875 5.40448 81.4896
lradius 24.8943
lwrist -9.29494
lhand -20.2748 33.083
lfingers 7.12502
lthumb 6.07447 62.9759
rfemur 9.45589 49.8837 42.7478
rtibia -10.9604
rfoot -62.4202 -41.873
rtoes 31.8198
lfemur -11.5858 -17.8087 -3.17038
ltibia 11.9459
lfoot -33.3548 24.2061
ltoes -62.5344
67
root -22.4588 15.7957 6.53117 -171.026 -17.9773 -174.188
lowerback 6.47087 1.59044 2.94766
upperback -9.9196 2.17228 2.55244
thorax -14.5557 0.590708 0.85417
lowerneck -19.0549 -3.15698 -6.61202
upperneck 31.4648 -6.71869 7.53675
head 14.5192 -3.27227 2.85186
rclavicle 2.2736e-014 -2.88238e-014
rhumerus -53.0198 33.3708 -95.5594
rradius 32.397
rwrist -18.6149
rhand -18.326 -19.9218
rfingers 7.12502
rthumb 7.95575 -49.752
lclavicle 2.2736e-014 -2.88238e-014
lhumerus -36.4246 5.40463 81.4652
lradius 23.8174
lwrist -8.30587
lhand -19.6411 34.4422
lfingers 7.12502
lthumb 6.68627 64.3166
rfemur 9.39963 49.9114 42.7434
rtibia -10.9656
rfoot -62.2162 -42.0437
rtoes 31.5739
lfemur -11.6946 -18.4766 -3.26153
ltibia 12.0339
lfoot -32.4672 23.7433
ltoes -62.793
68
root -22.4163 15.7975 6.53711 -170.998 -17.893 -174.305
lowerback 6.37583 1.59426 2.91745
upperback -9.94109 2.16128 2.52352
thorax -14.5202 0.585277 0.84288
lowerneck -18.9928 -3.0854 -6.71607
upperneck 31.6657 -6.60635 7.47923
head 14.5854 -3.25719 2.87009
rclavicle -2.53699e-014 1.05356e-014
rhumerus -52.3201 35.3524 -96.0597
rradius 33.1905
rwrist -20.1149
rhand -16.6517 -20.8381
rfingers 7.12502
rthumb 9.57141 -50.6007
lclavicle -2.53699e-014 1.05356e-014
lhumerus -34.173 5.52657 81.3096
lradius 22.9075
lwrist -7.05047
lhand -19.8887 36.2622
lfingers 7.12502
lthumb 6.44722 66.144
rfemur 9.32497 49.9441 42.721
rtibia -10.9884
rfoot -62.0441 -42.1428
rtoes 31.3981
lfemur -11.8782 -19.0734 -3.32833
ltibia 12.2234
lfoot -31.4638 23.2098
ltoes -63.721
69
root -22.377 15.8003 6.54496 -170.968 -17.8085 -174.42
lowerback 6.26285 1.59441 2.9083
upperback -9.97351 2.14453 2.48425
thorax -14.4852 0.57329 0.810031
lowerneck -18.8975 -3.00954 -6.82782
upperneck 31.8406 -6.50036 7.4627
head 14.6355 -3.24193 2.90518
rclavicle 4.72114e-015 3.08116e-014
rhumerus -51.1557 37.249 -96.0373
rradius 34.12
rwrist -21.9121
rhand -15.1099 -22.0773
rfingers 7.12502
rthumb 11.0587 -51.766
lclavicle 4.72114e-015 3.08116e-014
lhumerus -31.6596 5.67364 81.093
lradius 22.3405
lwrist -5.21223
lhand -21.1055 38.4342
lfingers 7.12502
lthumb 5.27244 68.3486
rfemur 9.22592 49.9751 42.6628
rtibia -11.0116
rfoot -61.9112 -42.1844
rtoes 31.293
lfemur -12.1127 -19.5984 -3.39206
ltibia 12.4842
lfoot -30.3823 22.6478
ltoes -64.9121
70
root -22.3408 15.8041 6.55418 -170.945 -17.7219 -174.545
lowerback 6.142 1.59012 2.90264
upperback -10.0139 2.11953 2.43026
thorax -14.454 0.555583 0.760706
lowerneck -18.7913 -2.93046 -6.82011
upperneck 32.0054 -6.37913 7.31055
head 14.6664 -3.22321 2.86556
rclavicle -1.62506e-014 5.1684e-015
rhumerus -49.4134 38.9472 -95.3521
rradius 35.2544
rwrist -24.1951
rhand -14.1065 -23.6796
rfingers 7.12502
rthumb 12.0264 -53.314
lclavicle -1.62506e-014 5.1684e-015
lhumerus -28.9274 5.66947 80.9004
lradius 22.2747
lwrist -2.40156
lhand -23.0997 40.8462
lfingers 7.12502
lthumb 3.34683 70.7996
rfemur 9.11816 50.0032 42.5753
rtibia -11.0155
rfoot -61.7923 -42.1996
rtoes 31.2628
lfemur -12.3458 -20.087 -3.47115
ltibia 12.7632
lfoot -29.3694 21.9989
ltoes -65.9199
71
root -22.308 15.8085 6.56392 -170.948 -17.644 -174.68
lowerback 6.03026 1.57692 2.90251
upperback -10.057 2.08256 2.36426
thorax -14.4311 0.530782 0.697029
lowerneck -18.6661 -2.84738 -6.73429
upperneck 32.1559 -6.25232 7.08763
head 14.6804 -3.20226 2.78341
rclavicle -3.42904e-015 -2.24627e-014
rhumerus -47.0177 40.3372 -93.92
rradius 36.655
rwrist -27.1409
rhand -14.1546 -25.6384
rfingers 7.12502
rthumb 11.9801 -55.2755
lclavicle -3.42904e-015 -2.24627e-014
lhumerus -26.0369 5.30667 80.8018
lradius 22.8438
lwrist 1.71899
lhand -25.7132 43.4355
lfingers 7.12502
lthumb 0.822724 73.4136
rfemur 9.05011 50.0117 42.5
rtibia -11.0066
rfoot -61.67 -42.2277
rtoes 31.2552
lfemur -12.5263 -20.5837 -3.57307
ltibia 13.0145
lfoot -28.5367 21.193
ltoes -66.5174
72
root -22.2776 15.8115 6.57421 -170.974 -17.5218 -174.796
lowerback 5.92944 1.57301 2.9042
upperback -10.1054 2.05831 2.29795
thorax -14.4217 0.511169 0.62972
lowerneck -18.533 -2.76061 -6.56302
upperneck 32.3031 -6.11993 6.78342
head 14.6847 -3.17953 2.65319
rclavicle 4.28878e-014 1.0138e-014
rhumerus -43.9435 41.3095 -91.728
rradius 38.3813
rwrist -30.893
rhand -15.6428 -27.8136
rfingers 7.12502
rthumb 10.5448 -57.5291
lclavicle 4.28878e-014 1.0138e-014
lhumerus -23.0654 4.48747 80.7835
lradius 24.1452
lwrist 7.19344
lhand -28.8195 46.2163
lfingers 7.12502
lthumb -2.1774 76.1849
rfemur 8.99402 50.0607 42.4514
rtibia -10.9547
rfoot -61.5418 -42.2746
rtoes 31.2075
lfemur -12.6112 -21.0755 -3.6691
ltibia 13.1829
lfoot -27.9122 20.3288
ltoes -66.5988
73
root -22.2501 15.8129 6.58448 -171.048 -17.3647 -174.867
lowerback 5.85564 1.57516 2.93543
upperback -10.1513 2.04849 2.24061
thorax -14.4259 0.495583 0.552953
lowerneck -18.373 -2.66805 -6.34599
upperneck 32.4397 -5.9826 6.44214
head 14.6753 -3.15512 2.50027
rclavicle -6.80837e-015 3.37934e-015
rhumerus -40.2526 41.7584 -88.8506
rradius 40.5166
rwrist -35.4697
rhand -18.6435 -30.0983
rfingers 7.12502
rthumb 7.6493 -59.9399
lclavicle -6.80837e-015 3.37934e-015
lhumerus -20.0943 3.25555 80.7677
lradius 26.2166
lwrist 13.7496
lhand -32.906 49.3883
lfingers 7.12502
lthumb -6.12343 79.2798
rfemur 9.00192 50.1354 42.4885
rtibia -10.8821
rfoot -61.4402 -42.3086
rtoes 31.0975
lfemur -12.5732 -21.5755 -3.738
ltibia 13.2554
lfoot -27.4325 19.6247
ltoes -66.3269
74
root -22.2255 15.8126 6.59414 -171.172 -17.1815 -174.865
lowerback 5.79727 1.58292 3.02576
upperback -10.1942 2.05602 2.20428
thorax -14.4355 0.482697 0.463348
lowerneck -18.1422 -2.56478 -6.15738
upperneck 32.5422 -5.83802 6.14406
head 14.6375 -3.12773 2.37157
rclavicle -1.07443e-013 -6.42074e-014
rhumerus -36.0806 41.5904 -85.4391
rradius 43.1082
rwrist -40.8116
rhand -22.8327 -32.23
rfingers 7.12502
rthumb 3.60467 -62.1793
lclavicle -1.07443e-013 -6.42074e-014
lhumerus -17.2057 1.71014 80.6792
lradius 29.0915
lwrist 20.9236
lhand -36.7069 52.0943
lfingers 7.12502
lthumb -9.7919 81.8466
rfemur 9.08381 50.2293 42.6447
rtibia -10.8065
rfoot -61.3887 -42.2938
rtoes 30.9036
lfemur -12.4179 -22.0418 -3.7403
ltibia 13.225
lfoot -27.021 19.2078
ltoes -65.8942
75
root -22.2039 15.8108 6.60282 -171.327 -16.9798 -174.777
lowerback 5.73143 1.59582 3.17691
upperback -10.2377 2.07887 2.19874
thorax -14.4402 0.471496 0.371715
lowerneck -17.8049 -2.45431 -6.07051
upperneck 32.5781 -5.69987 5.98339
head 14.5555 -3.10002 2.31644
rclavicle -1.2424e-015 2.70347e-014
rhumerus -31.6046 40.7352 -81.7106
rradius 46.156
rwrist -46.7094
rhand -27.5591 -33.9499
rfingers 7.12502
rthumb -0.960069 -63.9275
lclavicle -1.2424e-015 2.70347e-014
lhumerus -14.4642 -0.0398583 80.4629
lradius 32.7594
lwrist 28.2946
lhand -39.9509 54.3268
lfingers 7.12502
lthumb -12.9204 83.9068
rfemur 9.21861 50.3414 42.915
rtibia -10.7469
rfoot -61.3809 -42.2247
rtoes 30.6859
lfemur -12.1683 -22.439 -3.64917
ltibia 13.0755
lfoot -26.5971 19.1403
ltoes -65.501
